<svg width="23" height="20" viewBox="0 0 23 20" fill="none" xmlns="http://www.w3.org/2000/svg">
<path d="M19.965 2.31631L19.9646 2.31592C19.3853 1.74805 18.7023 1.29678 17.9527 0.986631L17.9521 0.986363C17.1746 0.663393 16.3407 0.498079 15.4988 0.500017L15.4976 0.500019C14.315 0.500018 13.1622 0.823794 12.1608 1.43471L12.1607 1.43472C11.9212 1.58087 11.6939 1.74117 11.4788 1.91562L11.1639 2.17109L10.8489 1.91562C10.6338 1.74117 10.4066 1.58087 10.167 1.43472L10.167 1.43471C9.16554 0.823794 8.01268 0.500018 6.83011 0.500018C5.97767 0.500018 5.15395 0.66308 4.37567 0.986365L4.37513 0.986589C3.62283 1.29805 2.94532 1.74571 2.36297 2.31607L2.36229 2.31674C1.78373 2.88124 1.32156 3.55378 1.00197 4.29625L19.965 2.31631ZM19.965 2.31631C20.543 2.88165 21.0052 3.55425 21.3259 4.29648C21.6582 5.06886 21.8275 5.88747 21.8251 6.73051V6.73193C21.8251 7.52402 21.6634 8.36027 21.3335 9.22283L21.3331 9.22397C21.0597 9.94412 20.6578 10.7011 20.1397 11.4746C19.3193 12.6976 18.1822 13.9862 16.7556 15.3033C14.3862 17.4891 12.0419 18.9981 11.951 19.0564L11.9509 19.0565L11.3394 19.4486C11.3392 19.4487 11.3391 19.4488 11.3389 19.4489C11.2318 19.517 11.0933 19.517 10.9862 19.4489C10.9861 19.4488 10.9859 19.4487 10.9857 19.4486L10.3743 19.0565L10.3743 19.0564L10.3664 19.0515C10.3664 19.0515 10.3635 19.0497 10.3565 19.0453L10.3302 19.0284C10.308 19.0141 10.2774 18.9943 10.2389 18.969C10.1619 18.9184 10.0538 18.8464 9.91891 18.7545C9.64912 18.5709 9.27292 18.3081 8.82535 17.9787C7.92943 17.3191 6.75146 16.3948 5.5697 15.3034L5.56964 15.3034M19.965 2.31631L5.56964 15.3034M5.56964 15.3034C4.14313 13.9864 3.00598 12.6978 2.1856 11.4748L5.56964 15.3034ZM11.1639 17.826L10.8941 18.247L11.1639 18.4198L11.4336 18.247L11.1639 17.826ZM11.1639 17.826C11.4336 18.247 11.4337 18.2469 11.4339 18.2468L11.4344 18.2465L11.4359 18.2455L11.4416 18.2419L11.4627 18.2282C11.481 18.2163 11.5078 18.1988 11.5425 18.1759C11.6118 18.1302 11.7127 18.063 11.8406 17.9758C12.0965 17.8016 12.4608 17.5476 12.8974 17.2266C13.7699 16.5854 14.9354 15.6742 16.103 14.5961C17.2685 13.52 18.4489 12.266 19.3413 10.9377C20.2293 9.61589 20.8637 8.17371 20.8637 6.73193C20.8637 3.8129 18.4517 1.46403 15.4976 1.46403C13.7203 1.46403 12.1413 2.31269 11.1639 3.62294C10.1865 2.31269 8.60739 1.46403 6.83011 1.46403C3.87603 1.46403 1.46401 3.8129 1.46401 6.73193C1.46401 8.17371 2.0984 9.61589 2.98646 10.9377C3.87879 12.266 5.05925 13.52 6.22475 14.5961C7.39235 15.6742 8.55783 16.5854 9.43029 17.2266C9.86695 17.5476 10.2312 17.8016 10.4871 17.9758C10.615 18.063 10.7159 18.1302 10.7852 18.1759C10.8199 18.1988 10.8467 18.2163 10.865 18.2282L10.8861 18.2419L10.8918 18.2455L10.8934 18.2465L10.8938 18.2468C10.894 18.2469 10.8941 18.247 11.1639 17.826ZM0.5 6.73193C0.5 5.88786 0.669547 5.06872 1.00195 4.29629L2.18544 11.4746C1.66792 10.702 1.26803 9.94446 0.991515 9.22258C0.661703 8.36011 0.5 7.52394 0.5 6.73193Z" fill="white" stroke="white"/>
</svg>
