<svg width="16" height="11" viewBox="0 0 16 11" fill="none" xmlns="http://www.w3.org/2000/svg">
<path d="M1.37547 9.86181H15.4128C15.5569 9.86204 15.6956 9.91695 15.8008 10.0154C15.906 10.1139 15.9699 10.2487 15.9797 10.3925C15.9894 10.5363 15.9442 10.6784 15.8532 10.7902C15.7622 10.9019 15.6322 10.975 15.4895 10.9947L15.4128 11H1.37547C1.23026 11.0014 1.08997 10.9474 0.983345 10.8488C0.876717 10.7502 0.811812 10.6146 0.801921 10.4697C0.792029 10.3248 0.8379 10.1816 0.930139 10.0695C1.02238 9.95729 1.15401 9.88463 1.29807 9.86636L1.37547 9.86181H15.4128H1.37547ZM1.37547 4.93204H15.4128C15.5569 4.93228 15.6956 4.98719 15.8008 5.08568C15.906 5.18418 15.9699 5.31892 15.9797 5.46271C15.9894 5.60651 15.9442 5.74863 15.8532 5.8604C15.7622 5.97217 15.6322 6.04525 15.4895 6.06489L15.4128 6.07021H1.37547C1.23026 6.07168 1.08997 6.01759 0.983345 5.919C0.876717 5.82042 0.811812 5.6848 0.801921 5.53992C0.792029 5.39503 0.8379 5.25185 0.930139 5.13969C1.02238 5.02752 1.15401 4.95487 1.29807 4.93659L1.37547 4.93204H15.4128H1.37547ZM1.37471 0H15.4121C15.5562 4.41931e-05 15.695 0.0548176 15.8004 0.153252C15.9057 0.251687 15.9698 0.386443 15.9796 0.530293C15.9895 0.674143 15.9443 0.816361 15.8533 0.92821C15.7623 1.04006 15.6323 1.1132 15.4895 1.13285L15.4121 1.13816H1.37471C1.23052 1.13812 1.09173 1.08335 0.986374 0.984912C0.881018 0.886477 0.816953 0.75172 0.807125 0.607871C0.797298 0.464021 0.84244 0.321803 0.93343 0.209954C1.02442 0.0981056 1.15447 0.0249652 1.29731 0.00531177L1.37471 0H15.4121H1.37471Z" fill="#DB202C"/>
</svg>
