<svg width="198" height="57" viewBox="0 0 198 57" fill="none" xmlns="http://www.w3.org/2000/svg">
<g filter="url(#filter0_d_2_8)">
<path d="M130.453 0V35.6925C135.019 35.8974 139.574 36.145 144.116 36.4371V44.0043C136.936 43.5429 129.727 43.1907 122.487 42.9506V0H130.453ZM193.757 0.0042285L183.384 23.1909L193.754 48.9934L193.743 48.9983C190.722 48.5827 187.697 48.1905 184.663 47.8144L178.839 33.3326L172.96 46.4701C170.174 46.1735 167.384 45.8928 164.587 45.6298L174.7 23.0359L165.439 0.0042285H174.057L179.242 12.893L185.008 0.0042285H193.757ZM95.1465 42.5755L95.1463 0.00409167H117.384V7.63936H103.113V17.535H113.911V25.1023H103.113V42.5738L95.1465 42.5755ZM65.4005 7.64L65.4002 0.00369366H90.0396V7.63946H81.7028V42.7827C79.0439 42.8497 76.3877 42.9293 73.737 43.0257V7.64H65.4005ZM38.1672 45.2256V0.00497465H60.2939V7.64025H46.1322V17.9829C49.3857 17.9427 54.0116 17.8972 56.8896 17.9039V25.4718C53.2871 25.4286 49.2206 25.5194 46.1322 25.5491V37.0057C50.839 36.6488 55.56 36.3366 60.2939 36.0729V43.6409C52.8848 44.0524 45.5089 44.5825 38.1672 45.2256ZM22.5402 27.7318L22.5397 0.00373107H30.506V45.939C27.5939 46.2278 24.6872 46.5351 21.7856 46.8596L12.5612 21.3096V47.954C9.90065 48.288 7.24555 48.6363 4.59535 49V0.0042285H12.1659L22.5402 27.7318ZM150.688 44.4608V44.4609V0.00427803H158.654V45.0951C156.002 44.8675 153.347 44.657 150.688 44.4608Z" fill="#DB202C"/>
</g>
<defs>
<filter id="filter0_d_2_8" x="0.595352" y="0" width="197.162" height="57" filterUnits="userSpaceOnUse" color-interpolation-filters="sRGB">
<feFlood flood-opacity="0" result="BackgroundImageFix"/>
<feColorMatrix in="SourceAlpha" type="matrix" values="0 0 0 0 0 0 0 0 0 0 0 0 0 0 0 0 0 0 127 0" result="hardAlpha"/>
<feOffset dy="4"/>
<feGaussianBlur stdDeviation="2"/>
<feComposite in2="hardAlpha" operator="out"/>
<feColorMatrix type="matrix" values="0 0 0 0 0 0 0 0 0 0 0 0 0 0 0 0 0 0 0.25 0"/>
<feBlend mode="normal" in2="BackgroundImageFix" result="effect1_dropShadow_2_8"/>
<feBlend mode="normal" in="SourceGraphic" in2="effect1_dropShadow_2_8" result="shape"/>
</filter>
</defs>
</svg>
