<svg width="121" height="20" viewBox="0 0 121 20" fill="none" xmlns="http://www.w3.org/2000/svg">
<path d="M10 20C4.477 20 0 15.523 0 10C0 4.477 4.477 0 10 0C15.523 0 20 4.477 20 10C19.994 15.52 15.52 19.994 10 20ZM2 10.172C2.02273 12.2862 2.88145 14.3054 4.38848 15.7883C5.8955 17.2712 7.92829 18.0972 10.0425 18.0859C12.1568 18.0745 14.1806 17.2267 15.6716 15.7276C17.1626 14.2286 17.9995 12.2003 17.9995 10.086C17.9995 7.97172 17.1626 5.94341 15.6716 4.44437C14.1806 2.94533 12.1568 2.09748 10.0425 2.08612C7.92829 2.07475 5.8955 2.9008 4.38848 4.38372C2.88145 5.86664 2.02273 7.88584 2 10V10.172ZM8 14.5V5.5L14 10L8 14.5Z" fill="white"/>
<path d="M41.9004 1.00787C42.9806 0.348889 44.2236 1.81642e-05 45.4976 1.81642e-05C46.4057 -0.002072 47.3052 0.176245 48.1439 0.524616C48.9526 0.85925 49.6896 1.34616 50.3146 1.95886C50.9392 2.56975 51.4386 3.29655 51.785 4.0986C52.1442 4.93331 52.3277 5.8197 52.3251 6.73193L41.9004 1.00787ZM41.9004 1.00787C41.6419 1.1655 41.3964 1.33865 41.1639 1.5273L41.9004 1.00787ZM41.1639 17.826L40.8941 18.247L41.1639 18.4198L41.4336 18.247L41.1639 17.826ZM41.1639 17.826C41.4336 18.247 41.4337 18.2469 41.4339 18.2468L41.4344 18.2465L41.4359 18.2455L41.4416 18.2419L41.4627 18.2282C41.481 18.2163 41.5078 18.1988 41.5425 18.1759C41.6118 18.1302 41.7127 18.063 41.8406 17.9758C42.0965 17.8016 42.4608 17.5476 42.8974 17.2266C43.7699 16.5854 44.9354 15.6742 46.103 14.5961C47.2685 13.52 48.4489 12.266 49.3413 10.9377C50.2293 9.61589 50.8637 8.17371 50.8637 6.73193C50.8637 3.8129 48.4517 1.46403 45.4976 1.46403C43.7203 1.46403 42.1413 2.31269 41.1639 3.62294C40.1865 2.31269 38.6074 1.46403 36.8301 1.46403C33.876 1.46403 31.464 3.8129 31.464 6.73193C31.464 8.17371 32.0984 9.61589 32.9865 10.9377C33.8788 12.266 35.0593 13.52 36.2248 14.5961C37.3924 15.6742 38.5578 16.5854 39.4303 17.2266C39.8669 17.5476 40.2312 17.8016 40.4871 17.9758C40.615 18.063 40.7159 18.1302 40.7852 18.1759C40.8199 18.1988 40.8467 18.2163 40.865 18.2282L40.8861 18.2419L40.8918 18.2455L40.8934 18.2465L40.8938 18.2468C40.894 18.2469 40.8941 18.247 41.1639 17.826ZM49.9646 2.31592L49.965 2.31631C50.543 2.88162 51.0052 3.55418 51.3258 4.29635C51.6582 5.06877 51.8275 5.88743 51.8251 6.73051V6.73193C51.8251 7.52402 51.6634 8.36027 51.3335 9.22283L51.3331 9.22397C51.0597 9.94412 50.6578 10.7011 50.1397 11.4746C49.3193 12.6976 48.1822 13.9862 46.7556 15.3033C44.3862 17.4891 42.0419 18.9981 41.951 19.0564L41.9509 19.0565L41.3394 19.4486C41.3392 19.4487 41.3391 19.4488 41.3389 19.4489C41.2318 19.517 41.0933 19.517 40.9862 19.4489C40.9861 19.4488 40.9859 19.4487 40.9857 19.4486L40.3743 19.0565L40.3743 19.0564L40.3664 19.0515C40.3664 19.0515 40.3635 19.0497 40.3565 19.0453L40.3302 19.0284C40.308 19.0141 40.2774 18.9943 40.2389 18.969C40.1619 18.9184 40.0538 18.8464 39.9189 18.7545C39.6491 18.5709 39.2729 18.3081 38.8253 17.9787C37.9294 17.3191 36.7515 16.3948 35.5697 15.3034L35.5696 15.3034C34.1431 13.9864 33.006 12.6978 32.1856 11.4748C31.668 10.7022 31.2681 9.94454 30.9915 9.22258C30.6617 8.36011 30.5 7.52394 30.5 6.73193C30.5 5.88786 30.6695 5.06872 31.0019 4.29629C31.3215 3.5538 31.7837 2.88125 32.3623 2.31674L32.363 2.31607C32.9453 1.74571 33.6228 1.29805 34.3751 0.986589L34.3757 0.986365C35.1539 0.66308 35.9777 0.500018 36.8301 0.500018C38.0127 0.500018 39.1655 0.823794 40.167 1.43471L40.167 1.43472C40.4066 1.58087 40.6338 1.74117 40.8489 1.91562L41.1639 2.17109L41.4788 1.91562C41.6939 1.74117 41.9212 1.58087 42.1607 1.43472L42.1608 1.43471C43.1622 0.823794 44.315 0.500018 45.4976 0.500019L45.4988 0.500017C46.3407 0.498079 47.1746 0.663393 47.9521 0.986363L47.9527 0.986631C48.7023 1.29678 49.3853 1.74805 49.9646 2.31592Z" fill="white" stroke="white"/>
<path d="M72.8363 5.97223C72.8363 5.82488 72.7777 5.68358 72.6736 5.57939C72.5694 5.4752 72.4281 5.41667 72.2807 5.41667C72.1334 5.41667 71.9921 5.4752 71.8879 5.57939C71.7837 5.68358 71.7252 5.82488 71.7252 5.97223V10.8167L75.0029 13.0389C75.0633 13.0843 75.1323 13.1169 75.2057 13.1348C75.2792 13.1526 75.3554 13.1553 75.4299 13.1426C75.5044 13.13 75.5755 13.1023 75.6389 13.0612C75.7023 13.0201 75.7567 12.9665 75.7987 12.9037C75.8407 12.8409 75.8694 12.7702 75.8832 12.6959C75.8969 12.6216 75.8954 12.5453 75.8786 12.4716C75.8618 12.398 75.8302 12.3285 75.7857 12.2675C75.7412 12.2064 75.6846 12.1551 75.6196 12.1167L72.8418 10.2333L72.8363 5.97223Z" fill="white"/>
<path d="M81.0863 8.55001H79.9752C80.2924 10.2188 80.0545 11.9455 79.2979 13.4664C78.5414 14.9873 77.3077 16.2187 75.7854 16.9725C74.2632 17.7262 72.536 17.9609 70.8678 17.6406C69.1996 17.3204 67.6821 16.4628 66.5471 15.1989C65.4122 13.935 64.7223 12.3343 64.5827 10.6414C64.4431 8.94843 64.8616 7.25636 65.7743 5.82367C66.6869 4.39098 68.0434 3.29645 69.6367 2.70732C71.2299 2.11818 72.9722 2.06683 74.5974 2.56112L75.1529 1.58334C73.3694 0.984871 71.442 0.967682 69.6482 1.53424C67.8543 2.10081 66.2864 3.2219 65.1701 4.73619C64.0539 6.25048 63.4469 8.07986 63.4364 9.96107C63.426 11.8423 64.0126 13.6783 65.112 15.2049C66.2113 16.7315 67.7667 17.8699 69.5542 18.4564C71.3417 19.0428 73.2691 19.0471 75.0592 18.4684C76.8492 17.8898 78.4095 16.7582 79.5155 15.2364C80.6216 13.7147 81.2163 11.8812 81.2141 10C81.2112 9.51399 81.1684 9.02903 81.0863 8.55001Z" fill="white"/>
<path d="M72.3252 4.44444C72.6989 4.44882 73.0713 4.49164 73.4363 4.57222L73.9085 3.76111C73.0815 3.55844 72.2224 3.52239 71.3813 3.65507C70.5402 3.78775 69.734 4.0865 69.0095 4.53391C68.2851 4.98132 67.6569 5.56844 67.1616 6.26107C66.6664 6.95369 66.3139 7.73796 66.1248 8.56817C65.9357 9.39838 65.9137 10.2579 66.0601 11.0967C66.2065 11.9355 66.5184 12.7368 66.9776 13.4538C67.4368 14.1709 68.0341 14.7894 68.7347 15.2732C69.4354 15.7571 70.2253 16.0967 71.0585 16.2722L71.214 15.3889C69.915 15.0679 68.7755 14.2888 68.005 13.1949C67.2344 12.101 66.8845 10.7657 67.0197 9.43444C67.1549 8.10321 67.7659 6.86548 68.7406 5.94873C69.7153 5.03199 70.9881 4.49784 72.3252 4.44444Z" fill="white"/>
<path d="M77.2418 0.63334L74.064 6.11112C73.9901 6.21964 73.9477 6.3465 73.9414 6.47766C73.9352 6.60882 73.9654 6.73915 74.0286 6.8542C74.0919 6.96926 74.1858 7.06454 74.2999 7.1295C74.414 7.19446 74.5439 7.22656 74.6752 7.22223H81.0363C81.1675 7.22656 81.2974 7.19446 81.4115 7.1295C81.5256 7.06454 81.6195 6.96926 81.6828 6.8542C81.7461 6.73915 81.7762 6.60882 81.77 6.47766C81.7638 6.3465 81.7213 6.21964 81.6474 6.11112L78.4696 0.63334C78.4069 0.526149 78.3173 0.437235 78.2096 0.375445C78.1019 0.313655 77.9799 0.281143 77.8557 0.281143C77.7315 0.281143 77.6095 0.313655 77.5018 0.375445C77.3941 0.437235 77.3045 0.526149 77.2418 0.63334Z" fill="white"/>
<rect x="62.8252" y="0.5" width="19" height="19" stroke="black"/>
<path d="M114.902 12.3077V12.8077H115.402H118.576H119.517V14.8846H115.402H114.902V15.3846V19.5H112.825V15.3846V14.8846H112.325H108.21V12.8077H112.325H112.825V12.3077V8.19231H114.902V12.3077ZM92.8252 0.5H108.748V2.57692H92.8252V0.5ZM92.8252 6.65385H108.748V8.73077H92.8252V6.65385ZM92.8252 12.8077H104.133V14.8846H92.8252V12.8077Z" fill="white" stroke="white"/>
</svg>
