<svg width="11" height="7" viewBox="0 0 11 7" fill="none" xmlns="http://www.w3.org/2000/svg">
<path d="M10.085 0.90674L5.64543 5.23439L1.20585 0.90674C1.12653 0.829263 1.02005 0.785888 0.90917 0.785888C0.79829 0.785888 0.691809 0.829263 0.612488 0.90674C0.574081 0.944371 0.543569 0.989287 0.522739 1.03886C0.50191 1.08843 0.49118 1.14166 0.49118 1.19543C0.49118 1.2492 0.50191 1.30243 0.522739 1.352C0.543569 1.40157 0.574081 1.44648 0.612488 1.48412L5.33542 6.08891C5.41836 6.16975 5.5296 6.215 5.64543 6.215C5.76125 6.215 5.87249 6.16975 5.95543 6.08891L10.6784 1.485C10.717 1.44734 10.7478 1.40232 10.7688 1.35258C10.7898 1.30285 10.8006 1.24941 10.8006 1.19543C10.8006 1.14144 10.7898 1.08801 10.7688 1.03827C10.7478 0.988537 10.717 0.943511 10.6784 0.905851C10.599 0.828374 10.4926 0.785 10.3817 0.785C10.2708 0.785 10.1643 0.829263 10.085 0.90674Z" fill="white"/>
</svg>
